<?xml version="1.0" encoding="UTF-8"?>
<svg width="80px" height="80px" viewBox="0 0 80 80" version="1.1" xmlns="http://www.w3.org/2000/svg" xmlns:xlink="http://www.w3.org/1999/xlink">
    <!-- Generator: Sketch 61.2 (89653) - https://sketch.com -->
    <title>编组 22</title>
    <desc>Created with Sketch.</desc>
    <g id="首页" stroke="none" stroke-width="1" fill="none" fill-rule="evenodd">
        <g id="编组-22">
            <g id="编组-50">
                <rect id="矩形备份-15" x="0" y="0" width="80" height="80"></rect>
                <g id="编组-49" transform="translate(10.000000, 11.000000)" stroke="#000000" stroke-width="2">
                    <g id="编组-41">
                        <path d="M10.0211955,2.96987964 C11.6923077,1.70362777 13.6779831,0.692307692 16,0.692307692 C20.7581455,0.692307692 24.6153846,4.33419696 24.6153846,8.82669504 L24.6153846,18.1231377 C24.6153846,22.6156358 20.7581455,26.2575251 16,26.2575251 C13.6107376,26.2575251 11.4486352,25.3392369 9.88800311,23.856073 L9.84615385,56.6923077 L0,56.6923077 L0,23.8227425 C0.729048943,17.6869464 2.03167446,13.1893473 3.90787654,10.3299452 C6.72217966,6.04084218 8.35008332,4.23613152 10.0211955,2.96987964 Z" id="路径"></path>
                        <line x1="16.6153846" y1="11.4615385" x2="16.6153846" y2="16.3846154" id="直线-4" stroke-linecap="round"></line>
                    </g>
                    <g id="编组-41" transform="translate(47.500000, 28.500000) scale(-1, 1) translate(-47.500000, -28.500000) translate(35.000000, 0.000000)">
                        <path d="M10.0211955,2.96987964 C11.6923077,1.70362777 13.6779831,0.692307692 16,0.692307692 C20.7581455,0.692307692 24.6153846,4.33419696 24.6153846,8.82669504 L24.6153846,18.1231377 C24.6153846,22.6156358 20.7581455,26.2575251 16,26.2575251 C13.6107376,26.2575251 11.4486352,25.3392369 9.88800311,23.856073 L9.84615385,56.6923077 L0,56.6923077 L0,23.8227425 C0.729048943,17.6869464 2.03167446,13.1893473 3.90787654,10.3299452 C6.72217966,6.04084218 8.35008332,4.23613152 10.0211955,2.96987964 Z" id="路径"></path>
                        <line x1="16.6153846" y1="11.4615385" x2="16.6153846" y2="16.3846154" id="直线-4" stroke-linecap="round"></line>
                    </g>
                </g>
            </g>
        </g>
    </g>
</svg>