<?xml version="1.0" encoding="UTF-8"?>
<svg width="82px" height="80px" viewBox="0 0 82 80" version="1.1" xmlns="http://www.w3.org/2000/svg" xmlns:xlink="http://www.w3.org/1999/xlink">
    <!-- Generator: Sketch 61.2 (89653) - https://sketch.com -->
    <title>编组 2</title>
    <desc>Created with Sketch.</desc>
    <g id="首页" stroke="none" stroke-width="1" fill="none" fill-rule="evenodd">
        <g id="编组-2">
            <rect id="矩形" x="1" y="0" width="80" height="80"></rect>
            <g id="编组" transform="translate(1.000000, 2.962963)">
                <rect id="矩形" x="2.96296296" y="0" width="75.5555556" height="75.5555556"></rect>
                <path d="M62.962963,20.1748237 C70.3267596,20.1748237 76.2962963,26.1443603 76.2962963,33.508157 C76.2962963,34.2751607 76.2315325,35.0270381 76.1071752,35.7586189 C75.0433067,35.0217426 73.8690778,34.4213682 72.6068779,33.9852415 L72.3866667,33.9125926 L72.3887813,33.8873653 C72.4649869,30.9687563 71.1932697,28.1211503 68.8517803,26.2020929 L68.5327401,25.9514195 C66.3775064,24.3287464 63.6671335,23.6770738 61.0521971,24.07655 L60.8,24.12 L60.7546586,23.989121 C60.3467447,22.8443709 59.8530012,21.7424812 59.2814951,20.690116 C60.4500166,20.3544735 61.68551,20.1748237 62.962963,20.1748237 Z" id="形状结合" fill="#000000"></path>
                <path d="M67.4431376,27.9208127 C65.1663678,26.0547987 61.9880715,25.656773 59.3046375,26.9016086 C57.0359359,17.426756 48.351218,10.3703704 37.9768533,10.3703704 C25.8719544,10.3703704 16.0578584,19.9750155 16.0578584,31.8239892 C16.0578584,32.0976351 16.0689091,32.3647913 16.0788547,32.6384372 C10.9676351,31.7576682 5.78664324,33.7787331 2.69561186,37.8591368 C-0.395419525,41.9395405 -0.865990516,47.3789814 1.48005969,51.9099907 C3.8261099,56.441 8.58613915,59.2859406 13.775896,59.2592593 L67.8136499,59.2592593 C74.136676,59.2584273 79.4090752,54.5248061 79.9540799,48.3590602 C80.4990845,42.1933144 76.1356409,36.643742 69.9066459,35.5804006 C70.6785192,32.7793624 69.7199075,29.7868267 67.4431376,27.9208127 Z" id="路径" stroke="#000000" stroke-width="2" stroke-linecap="round" stroke-linejoin="round"></path>
            </g>
        </g>
    </g>
</svg>