<?xml version="1.0" encoding="UTF-8"?>
<svg width="80px" height="80px" viewBox="0 0 80 80" version="1.1" xmlns="http://www.w3.org/2000/svg" xmlns:xlink="http://www.w3.org/1999/xlink">
    <!-- Generator: Sketch 61.2 (89653) - https://sketch.com -->
    <title>编组 21</title>
    <desc>Created with Sketch.</desc>
    <g id="首页" stroke="none" stroke-width="1" fill="none" fill-rule="evenodd">
        <g id="编组-21">
            <g id="编组-40">
                <rect id="矩形备份-12" x="0" y="0" width="80" height="80"></rect>
                <path d="M28.3076923,20.9230769 L28.3076923,7.69230769 C28.3076923,5.48316869 30.0985533,3.69230769 32.3076923,3.69230769 L46.4615385,3.69230769 C48.6706775,3.69230769 50.4615385,5.48316869 50.4615385,7.69230769 L50.4615385,20.9230769 L50.4615385,20.9230769" id="路径" stroke="#000000" stroke-width="2"></path>
                <path d="M28.3076923,77.5384615 L28.3076923,64.3076923 C28.3076923,62.0985533 30.0985533,60.3076923 32.3076923,60.3076923 L46.4615385,60.3076923 C48.6706775,60.3076923 50.4615385,62.0985533 50.4615385,64.3076923 L50.4615385,77.5384615 L50.4615385,77.5384615" id="路径" stroke="#000000" stroke-width="2" transform="translate(39.384615, 68.923077) scale(1, -1) translate(-39.384615, -68.923077) "></path>
                <circle id="椭圆形备份-6" stroke="#000000" stroke-width="2" cx="39.3846154" cy="40.6153846" r="22.1538462"></circle>
                <circle id="椭圆形" stroke="#000000" stroke-width="2" cx="39.3846154" cy="40.6153846" r="17.2307692"></circle>
                <g id="编组-39" transform="translate(20.307692, 13.230769)" stroke="#000000" stroke-width="2">
                    <line x1="8" y1="0.857142857" x2="1.25419787" y2="14.2508857" id="直线-3"></line>
                    <line x1="36.9230769" y1="0.857142857" x2="30.1340449" y2="14.2508857" id="直线-3" transform="translate(33.538462, 8.000000) scale(-1, 1) translate(-33.538462, -8.000000) "></line>
                </g>
                <g id="编组-39" transform="translate(39.807692, 59.938799) scale(1, -1) translate(-39.807692, -59.938799) translate(20.307692, 51.938799)" stroke="#000000" stroke-width="2">
                    <line x1="8" y1="0.857142857" x2="1.25419787" y2="14.2508857" id="直线-3"></line>
                    <line x1="36.9230769" y1="0.857142857" x2="30.1340449" y2="14.2508857" id="直线-3" transform="translate(33.538462, 8.000000) scale(-1, 1) translate(-33.538462, -8.000000) "></line>
                </g>
                <path d="M59.1741221,27.0769231 L61.6356606,27.0769231 C62.3153956,27.0769231 62.8664298,27.6279572 62.8664298,28.3076923 L62.8664298,30.7692308 C62.8664298,31.4489658 62.3153956,32 61.6356606,32 L59.1741221,32 L57.8461538,31.9743415" id="路径" stroke="#000000" stroke-width="2" transform="translate(60.356292, 29.538462) rotate(-30.000000) translate(-60.356292, -29.538462) "></path>
                <path d="M59.1741221,49.2307692 L61.6356606,49.2307692 C62.3153956,49.2307692 62.8664298,49.7818034 62.8664298,50.4615385 L62.8664298,52.9230769 C62.8664298,53.602812 62.3153956,54.1538462 61.6356606,54.1538462 L59.1741221,54.1538462 L57.8461538,54.1281877" id="路径" stroke="#000000" stroke-width="2" transform="translate(60.356292, 51.692308) scale(1, -1) rotate(-30.000000) translate(-60.356292, -51.692308) "></path>
            </g>
        </g>
    </g>
</svg>